A rebel without a cause, Marcello is a young man of 16 who takes nothing seriously. In the classroom, he always talking, flirting and paying little attention to studying. Son of a government employee, a methodic and a moralist, Marcelo becomes a devil for the family. With a friend of the same age they go after the school girls and others. After some adventures, his father threatens to make him work. Fed up, Marcelo and his friend run away from home to Sao Paulo.

   General
      Complete name : Marcelo Zona Sul.avi
      Format : AVI
      Format/Info : Audio Video Interleave
      File size : 768 MiB
      Duration : 1h 43mn
      Overall bit rate : 1 036 Kbps
      Writing library : VirtualDub build 30009/release
   Video #0
      ID : 0
      Format : MPEG-4 Visual
      Format settings, BVOP : No
      Format settings, QPel : No
      Format settings, GMC : No warppoints
      Format settings, Matrix : Default (H.263)
      Codec ID : DX50
      Codec ID/Hint : DivX 5
      Duration : 1h 43mn
      Bit rate : 800 Kbps
      Width : 720 pixels
      Height : 480 pixels
      Display aspect ratio : 1.500
      Frame rate : 29.970 fps
      Standard : NTSC
      Resolution : 24 bits
      Colorimetry : 4:2:0
      Scan type : Progressive
      Bits/(Pixel*Frame) : 0.077
      Stream size : 593 MiB (77%)
      Writing library : DivX 6.6.1.4
   Audio #1
      ID : 1
      Format : MPEG Audio
      Format version : Version 1
      Format profile : Layer 3
      Codec ID : 55
      Codec ID/Hint : MP3
      Duration : 1h 43mn
      Bit rate mode : Constant
      Bit rate : 224 Kbps
      Channel(s) : 2 channels
      Sampling rate : 48.0 KHz
      Resolution : 16 bits
      Video delay : 8ms
      Stream size : 166 MiB (22%)
      Alignment : Split accross interleaves
      Interleave, duration : 33 ms (1.00 video frame)
      Interleave, preload duration : 500 ms
      Writing library : LAME3.96

Reasonable quality TV rip

Portuguese audio, no subtitles

Posted at KG by finofski
 
http://www.imdb.com/title/tt0193662/